<svg width="1440" height="1024" viewBox="0 0 1440 1024" fill="none" xmlns="http://www.w3.org/2000/svg">
<g clip-path="url(#clip0_1_33)">
<rect width="1440" height="1024" fill="white"/>
<g filter="url(#filter0_f_1_33)">
<path d="M279.11 1237.08C43.5975 1082.47 336.383 197.967 131.921 509.415C23.9595 673.867 -324.689 1086.26 -451.477 1398.08C-564.806 1676.8 -470.295 1861.61 -359.139 1934.59C-123.626 2089.2 349.348 1836.35 553.81 1524.91C758.272 1213.46 514.623 1391.7 279.11 1237.08Z" fill="#FFCC80" fill-opacity="0.6"/>
</g>
<g filter="url(#filter1_f_1_33)">
<ellipse cx="1425.69" cy="34.1529" rx="475.153" ry="569.688" transform="rotate(90 1425.69 34.1529)" fill="url(#paint0_linear_1_33)"/>
</g>
<g filter="url(#filter2_f_1_33)">
<ellipse cx="398.786" cy="404.052" rx="398.786" ry="404.052" transform="matrix(0.773528 0.633763 -0.76229 0.647236 1496.01 -704)" fill="url(#paint1_linear_1_33)"/>
</g>
<g filter="url(#filter3_f_1_33)">
<ellipse cx="352.495" cy="407.606" rx="352.495" ry="407.606" transform="matrix(-0.81656 0.57726 -0.712775 -0.701393 1664.73 180.784)" fill="#9CFFEA"/>
</g>
<g filter="url(#filter4_f_1_33)">
<ellipse cx="672" cy="1430" rx="366" ry="689" fill="#FD91AB"/>
</g>
<g filter="url(#filter5_f_1_33)">
<ellipse cx="1851.5" cy="1566" rx="952.5" ry="1048" fill="#F9A7FC"/>
</g>
</g>
<defs>
<filter id="filter0_f_1_33" x="-922.69" y="23.4776" width="1973.13" height="2377.84" filterUnits="userSpaceOnUse" color-interpolation-filters="sRGB">
<feFlood flood-opacity="0" result="BackgroundImageFix"/>
<feBlend mode="normal" in="SourceGraphic" in2="BackgroundImageFix" result="shape"/>
<feGaussianBlur stdDeviation="210" result="effect1_foregroundBlur_1_33"/>
</filter>
<filter id="filter1_f_1_33" x="656" y="-641" width="1539.38" height="1350.31" filterUnits="userSpaceOnUse" color-interpolation-filters="sRGB">
<feFlood flood-opacity="0" result="BackgroundImageFix"/>
<feBlend mode="normal" in="SourceGraphic" in2="BackgroundImageFix" result="shape"/>
<feGaussianBlur stdDeviation="100" result="effect1_foregroundBlur_1_33"/>
</filter>
<filter id="filter2_f_1_33" x="619.251" y="-994.744" width="1754.45" height="1609.99" filterUnits="userSpaceOnUse" color-interpolation-filters="sRGB">
<feFlood flood-opacity="0" result="BackgroundImageFix"/>
<feBlend mode="normal" in="SourceGraphic" in2="BackgroundImageFix" result="shape"/>
<feGaussianBlur stdDeviation="220.656" result="effect1_foregroundBlur_1_33"/>
</filter>
<filter id="filter3_f_1_33" x="46.9496" y="-883.011" width="2078.83" height="1962.77" filterUnits="userSpaceOnUse" color-interpolation-filters="sRGB">
<feFlood flood-opacity="0" result="BackgroundImageFix"/>
<feBlend mode="normal" in="SourceGraphic" in2="BackgroundImageFix" result="shape"/>
<feGaussianBlur stdDeviation="315.222" result="effect1_foregroundBlur_1_33"/>
</filter>
<filter id="filter4_f_1_33" x="-314" y="121" width="1972" height="2618" filterUnits="userSpaceOnUse" color-interpolation-filters="sRGB">
<feFlood flood-opacity="0" result="BackgroundImageFix"/>
<feBlend mode="normal" in="SourceGraphic" in2="BackgroundImageFix" result="shape"/>
<feGaussianBlur stdDeviation="310" result="effect1_foregroundBlur_1_33"/>
</filter>
<filter id="filter5_f_1_33" x="279" y="-102" width="3145" height="3336" filterUnits="userSpaceOnUse" color-interpolation-filters="sRGB">
<feFlood flood-opacity="0" result="BackgroundImageFix"/>
<feBlend mode="normal" in="SourceGraphic" in2="BackgroundImageFix" result="shape"/>
<feGaussianBlur stdDeviation="310" result="effect1_foregroundBlur_1_33"/>
</filter>
<linearGradient id="paint0_linear_1_33" x1="1270.94" y1="-345.94" x2="1723.39" y2="77.1837" gradientUnits="userSpaceOnUse">
<stop stop-color="#18BEFD"/>
<stop offset="0.976355" stop-color="#2DECF9" stop-opacity="0.4"/>
</linearGradient>
<linearGradient id="paint1_linear_1_33" x1="268.912" y1="134.471" x2="588.891" y2="488.569" gradientUnits="userSpaceOnUse">
<stop stop-color="#18BEFD"/>
<stop offset="0.976355" stop-color="#2DECF9" stop-opacity="0.4"/>
</linearGradient>
<clipPath id="clip0_1_33">
<rect width="1440" height="1024" fill="white"/>
</clipPath>
</defs>
</svg>
