<svg width="1440" height="1024" viewBox="0 0 1440 1024" fill="none" xmlns="http://www.w3.org/2000/svg">
<g clip-path="url(#clip0_1_33)">
<rect width="1440" height="1024" fill="white"/>
<g filter="url(#filter0_f_1_33)">
<path d="M284.11 1193.08C48.5975 1038.47 341.383 153.967 136.921 465.415C28.9595 629.867 -319.689 1042.26 -446.477 1354.08C-559.806 1632.8 -465.295 1817.61 -354.139 1890.59C-118.626 2045.2 354.348 1792.35 558.81 1480.91C763.272 1169.46 519.623 1347.7 284.11 1193.08Z" fill="#FFCC80" fill-opacity="0.6"/>
</g>
<g filter="url(#filter1_f_1_33)">
<ellipse cx="1775.5" cy="1280" rx="952.5" ry="1048" fill="#F9A7FC"/>
</g>
<g filter="url(#filter2_f_1_33)">
<ellipse cx="1368.69" cy="168.153" rx="475.153" ry="569.688" transform="rotate(90 1368.69 168.153)" fill="url(#paint0_linear_1_33)"/>
</g>
<g filter="url(#filter3_f_1_33)">
<ellipse cx="398.786" cy="404.052" rx="398.786" ry="404.052" transform="matrix(0.773528 0.633763 -0.76229 0.647236 1439.01 -570)" fill="url(#paint1_linear_1_33)"/>
</g>
<g filter="url(#filter4_f_1_33)">
<ellipse cx="352.495" cy="407.606" rx="352.495" ry="407.606" transform="matrix(-0.81656 0.57726 -0.712775 -0.701393 1607.73 314.784)" fill="#9CFFEA"/>
</g>
<g filter="url(#filter5_f_1_33)">
<ellipse cx="667" cy="1475" rx="366" ry="689" fill="#FD91AB"/>
</g>
</g>
<defs>
<filter id="filter0_f_1_33" x="-917.69" y="-20.5224" width="1973.13" height="2377.84" filterUnits="userSpaceOnUse" color-interpolation-filters="sRGB">
<feFlood flood-opacity="0" result="BackgroundImageFix"/>
<feBlend mode="normal" in="SourceGraphic" in2="BackgroundImageFix" result="shape"/>
<feGaussianBlur stdDeviation="210" result="effect1_foregroundBlur_1_33"/>
</filter>
<filter id="filter1_f_1_33" x="203" y="-388" width="3145" height="3336" filterUnits="userSpaceOnUse" color-interpolation-filters="sRGB">
<feFlood flood-opacity="0" result="BackgroundImageFix"/>
<feBlend mode="normal" in="SourceGraphic" in2="BackgroundImageFix" result="shape"/>
<feGaussianBlur stdDeviation="310" result="effect1_foregroundBlur_1_33"/>
</filter>
<filter id="filter2_f_1_33" x="599" y="-507" width="1539.38" height="1350.31" filterUnits="userSpaceOnUse" color-interpolation-filters="sRGB">
<feFlood flood-opacity="0" result="BackgroundImageFix"/>
<feBlend mode="normal" in="SourceGraphic" in2="BackgroundImageFix" result="shape"/>
<feGaussianBlur stdDeviation="100" result="effect1_foregroundBlur_1_33"/>
</filter>
<filter id="filter3_f_1_33" x="562.251" y="-860.744" width="1754.45" height="1609.99" filterUnits="userSpaceOnUse" color-interpolation-filters="sRGB">
<feFlood flood-opacity="0" result="BackgroundImageFix"/>
<feBlend mode="normal" in="SourceGraphic" in2="BackgroundImageFix" result="shape"/>
<feGaussianBlur stdDeviation="220.656" result="effect1_foregroundBlur_1_33"/>
</filter>
<filter id="filter4_f_1_33" x="-10.0504" y="-749.011" width="2078.83" height="1962.77" filterUnits="userSpaceOnUse" color-interpolation-filters="sRGB">
<feFlood flood-opacity="0" result="BackgroundImageFix"/>
<feBlend mode="normal" in="SourceGraphic" in2="BackgroundImageFix" result="shape"/>
<feGaussianBlur stdDeviation="315.222" result="effect1_foregroundBlur_1_33"/>
</filter>
<filter id="filter5_f_1_33" x="-319" y="166" width="1972" height="2618" filterUnits="userSpaceOnUse" color-interpolation-filters="sRGB">
<feFlood flood-opacity="0" result="BackgroundImageFix"/>
<feBlend mode="normal" in="SourceGraphic" in2="BackgroundImageFix" result="shape"/>
<feGaussianBlur stdDeviation="310" result="effect1_foregroundBlur_1_33"/>
</filter>
<linearGradient id="paint0_linear_1_33" x1="1213.94" y1="-211.94" x2="1666.39" y2="211.184" gradientUnits="userSpaceOnUse">
<stop stop-color="#18BEFD"/>
<stop offset="0.976355" stop-color="#2DECF9" stop-opacity="0.4"/>
</linearGradient>
<linearGradient id="paint1_linear_1_33" x1="268.912" y1="134.471" x2="588.891" y2="488.569" gradientUnits="userSpaceOnUse">
<stop stop-color="#18BEFD"/>
<stop offset="0.976355" stop-color="#2DECF9" stop-opacity="0.4"/>
</linearGradient>
<clipPath id="clip0_1_33">
<rect width="1440" height="1024" fill="white"/>
</clipPath>
</defs>
</svg>
